<?xml version="1.0" encoding="utf-8" ?>
<svg baseProfile="tiny" height="100%" version="1.2" width="100%" xmlns="http://www.w3.org/2000/svg" xmlns:ev="http://www.w3.org/2001/xml-events" xmlns:xlink="http://www.w3.org/1999/xlink"><defs /><line stroke="blue" x1="343" x2="325" y1="376" y2="371" /><line stroke="blue" x1="343" x2="361" y1="376" y2="382" /><line stroke="blue" x1="507" x2="489" y1="419" y2="414" /><line stroke="blue" x1="507" x2="525" y1="419" y2="425" /><line stroke="blue" x1="395" x2="412" y1="407" y2="411" /><line stroke="blue" x1="395" x2="378" y1="407" y2="402" /><line stroke="blue" x1="360" x2="378" y1="398" y2="402" /><line stroke="blue" x1="360" x2="342" y1="398" y2="394" /><line stroke="blue" x1="430" x2="448" y1="415" y2="419" /><line stroke="blue" x1="430" x2="412" y1="415" y2="411" /><line stroke="blue" x1="569" x2="551" y1="452" y2="448" /><line stroke="blue" x1="569" x2="585" y1="452" y2="457" /><line stroke="blue" x1="449" x2="431" y1="539" y2="534" /><line stroke="blue" x1="449" x2="467" y1="539" y2="545" /><line stroke="blue" x1="449" x2="453" y1="539" y2="524" /><line stroke="blue" x1="449" x2="443" y1="539" y2="559" /><line stroke="blue" x1="598" x2="613" y1="631" y2="632" /><line stroke="blue" x1="598" x2="593" y1="631" y2="638" /><line stroke="blue" x1="598" x2="600" y1="631" y2="616" /><line stroke="blue" x1="544" x2="525" y1="430" y2="425" /><line stroke="blue" x1="544" x2="561" y1="430" y2="435" /><line stroke="blue" x1="437" x2="443" y1="577" y2="559" /><line stroke="blue" x1="437" x2="432" y1="577" y2="596" /><line stroke="blue" x1="594" x2="601" y1="602" y2="583" /><line stroke="blue" x1="594" x2="581" y1="602" y2="602" /><line stroke="blue" x1="594" x2="600" y1="602" y2="616" /><line stroke="blue" x1="398" x2="380" y1="390" y2="387" /><line stroke="blue" x1="398" x2="416" y1="390" y2="395" /><line stroke="blue" x1="518" x2="527" y1="540" y2="522" /><line stroke="blue" x1="518" x2="511" y1="540" y2="559" /><line stroke="blue" x1="505" x2="511" y1="579" y2="559" /><line stroke="blue" x1="505" x2="499" y1="579" y2="600" /><line stroke="blue" x1="431" x2="414" y1="534" y2="528" /><line stroke="blue" x1="431" x2="449" y1="534" y2="539" /><line stroke="blue" x1="342" x2="360" y1="394" y2="398" /><line stroke="blue" x1="342" x2="325" y1="394" y2="388" /><line stroke="blue" x1="531" x2="512" y1="349" y2="345" /><line stroke="blue" x1="531" x2="548" y1="349" y2="356" /><line stroke="blue" x1="462" x2="467" y1="496" y2="480" /><line stroke="blue" x1="462" x2="457" y1="496" y2="510" /><line stroke="blue" x1="462" x2="476" y1="496" y2="499" /><line stroke="blue" x1="527" x2="540" y1="522" y2="508" /><line stroke="blue" x1="527" x2="518" y1="522" y2="540" /><line stroke="blue" x1="476" x2="462" y1="499" y2="496" /><line stroke="blue" x1="476" x2="490" y1="499" y2="503" /><line stroke="blue" x1="569" x2="581" y1="609" y2="602" /><line stroke="blue" x1="380" x2="362" y1="517" y2="511" /><line stroke="blue" x1="380" x2="397" y1="517" y2="522" /><line stroke="blue" x1="580" x2="561" y1="441" y2="435" /><line stroke="blue" x1="580" x2="598" y1="441" y2="447" /><line stroke="blue" x1="581" x2="594" y1="602" y2="602" /><line stroke="blue" x1="581" x2="569" y1="602" y2="609" /><line stroke="blue" x1="600" x2="582" y1="376" y2="370" /><line stroke="blue" x1="600" x2="617" y1="376" y2="382" /><line stroke="blue" x1="478" x2="483" y1="445" y2="429" /><line stroke="blue" x1="478" x2="472" y1="445" y2="462" /><line stroke="blue" x1="670" x2="651" y1="468" y2="463" /><line stroke="blue" x1="567" x2="573" y1="622" y2="637" /><line stroke="blue" x1="651" x2="634" y1="394" y2="388" /><line stroke="blue" x1="651" x2="670" y1="394" y2="400" /><line stroke="blue" x1="525" x2="507" y1="425" y2="419" /><line stroke="blue" x1="525" x2="544" y1="425" y2="430" /><line stroke="blue" x1="611" x2="615" y1="528" y2="545" /><line stroke="blue" x1="611" x2="593" y1="528" y2="522" /><line stroke="blue" x1="490" x2="476" y1="503" y2="499" /><line stroke="blue" x1="490" x2="505" y1="503" y2="505" /><line stroke="blue" x1="564" x2="548" y1="363" y2="356" /><line stroke="blue" x1="564" x2="582" y1="363" y2="370" /><line stroke="blue" x1="453" x2="449" y1="524" y2="539" /><line stroke="blue" x1="453" x2="457" y1="524" y2="510" /><line stroke="blue" x1="600" x2="594" y1="616" y2="602" /><line stroke="blue" x1="600" x2="598" y1="616" y2="631" /><line stroke="blue" x1="329" x2="346" y1="501" y2="506" /><line stroke="blue" x1="472" x2="478" y1="462" y2="445" /><line stroke="blue" x1="472" x2="467" y1="462" y2="480" /><line stroke="blue" x1="602" x2="585" y1="462" y2="457" /><line stroke="blue" x1="602" x2="619" y1="462" y2="468" /><line stroke="blue" x1="575" x2="593" y1="516" y2="522" /><line stroke="blue" x1="575" x2="558" y1="516" y2="510" /><line stroke="blue" x1="664" x2="670" y1="569" y2="548" /><line stroke="blue" x1="664" x2="658" y1="569" y2="588" /><line stroke="blue" x1="489" x2="471" y1="414" y2="409" /><line stroke="blue" x1="489" x2="507" y1="414" y2="419" /><line stroke="blue" x1="480" x2="463" y1="332" y2="325" /><line stroke="blue" x1="480" x2="497" y1="332" y2="333" /><line stroke="blue" x1="414" x2="397" y1="528" y2="522" /><line stroke="blue" x1="414" x2="431" y1="528" y2="534" /><line stroke="blue" x1="619" x2="602" y1="468" y2="462" /><line stroke="blue" x1="619" x2="636" y1="468" y2="474" /><line stroke="blue" x1="448" x2="466" y1="419" y2="425" /><line stroke="blue" x1="448" x2="430" y1="419" y2="415" /><line stroke="blue" x1="466" x2="483" y1="425" y2="429" /><line stroke="blue" x1="466" x2="448" y1="425" y2="419" /><line stroke="blue" x1="653" x2="658" y1="608" y2="588" /><line stroke="blue" x1="653" x2="647" y1="608" y2="626" /><line stroke="blue" x1="617" x2="600" y1="382" y2="376" /><line stroke="blue" x1="617" x2="634" y1="382" y2="388" /><line stroke="blue" x1="362" x2="346" y1="511" y2="506" /><line stroke="blue" x1="362" x2="380" y1="511" y2="517" /><line stroke="blue" x1="443" x2="449" y1="559" y2="539" /><line stroke="blue" x1="443" x2="437" y1="559" y2="577" /><line stroke="blue" x1="598" x2="580" y1="447" y2="441" /><line stroke="blue" x1="598" x2="615" y1="447" y2="451" /><line stroke="blue" x1="380" x2="361" y1="387" y2="382" /><line stroke="blue" x1="380" x2="398" y1="387" y2="390" /><line stroke="blue" x1="613" x2="627" y1="632" y2="639" /><line stroke="blue" x1="613" x2="598" y1="632" y2="631" /><line stroke="blue" x1="558" x2="575" y1="510" y2="516" /><line stroke="blue" x1="558" x2="540" y1="510" y2="508" /><line stroke="blue" x1="481" x2="487" y1="659" y2="639" /><line stroke="blue" x1="481" x2="474" y1="659" y2="680" /><line stroke="blue" x1="457" x2="453" y1="510" y2="524" /><line stroke="blue" x1="457" x2="462" y1="510" y2="496" /><line stroke="blue" x1="393" x2="376" y1="691" y2="687" /><line stroke="blue" x1="593" x2="586" y1="638" y2="639" /><line stroke="blue" x1="593" x2="598" y1="638" y2="631" /><line stroke="blue" x1="573" x2="586" y1="637" y2="639" /><line stroke="blue" x1="573" x2="567" y1="637" y2="622" /><line stroke="blue" x1="636" x2="619" y1="474" y2="468" /><line stroke="blue" x1="636" x2="652" y1="474" y2="480" /><line stroke="blue" x1="361" x2="343" y1="382" y2="376" /><line stroke="blue" x1="361" x2="380" y1="382" y2="387" /><line stroke="blue" x1="642" x2="647" y1="645" y2="626" /><line stroke="blue" x1="642" x2="627" y1="645" y2="639" /><line stroke="blue" x1="642" x2="636" y1="645" y2="663" /><line stroke="blue" x1="630" x2="636" y1="681" y2="663" /><line stroke="blue" x1="397" x2="380" y1="522" y2="517" /><line stroke="blue" x1="397" x2="414" y1="522" y2="528" /><line stroke="blue" x1="573" x2="580" y1="680" y2="659" /><line stroke="blue" x1="427" x2="432" y1="615" y2="596" /><line stroke="blue" x1="325" x2="342" y1="671" y2="677" /><line stroke="blue" x1="467" x2="449" y1="545" y2="539" /><line stroke="blue" x1="467" x2="485" y1="545" y2="551" /><line stroke="blue" x1="580" x2="573" y1="659" y2="680" /><line stroke="blue" x1="580" x2="586" y1="659" y2="639" /><line stroke="blue" x1="499" x2="505" y1="600" y2="579" /><line stroke="blue" x1="499" x2="493" y1="600" y2="620" /><line stroke="blue" x1="449" x2="463" y1="311" y2="325" /><line stroke="blue" x1="493" x2="499" y1="620" y2="600" /><line stroke="blue" x1="493" x2="487" y1="620" y2="639" /><line stroke="blue" x1="325" x2="342" y1="388" y2="394" /><line stroke="blue" x1="346" x2="329" y1="506" y2="501" /><line stroke="blue" x1="346" x2="362" y1="506" y2="511" /><line stroke="blue" x1="601" x2="594" y1="583" y2="602" /><line stroke="blue" x1="601" x2="609" y1="583" y2="565" /><line stroke="blue" x1="471" x2="452" y1="409" y2="406" /><line stroke="blue" x1="471" x2="489" y1="409" y2="414" /><line stroke="blue" x1="658" x2="664" y1="588" y2="569" /><line stroke="blue" x1="658" x2="653" y1="588" y2="608" /><line stroke="blue" x1="670" x2="651" y1="400" y2="394" /><line stroke="blue" x1="593" x2="611" y1="522" y2="528" /><line stroke="blue" x1="593" x2="575" y1="522" y2="516" /><line stroke="blue" x1="670" x2="652" y1="485" y2="480" /><line stroke="blue" x1="651" x2="633" y1="463" y2="457" /><line stroke="blue" x1="651" x2="670" y1="463" y2="468" /><line stroke="blue" x1="342" x2="325" y1="677" y2="671" /><line stroke="blue" x1="342" x2="359" y1="677" y2="681" /><line stroke="blue" x1="517" x2="500" y1="438" y2="433" /><line stroke="blue" x1="517" x2="535" y1="438" y2="443" /><line stroke="blue" x1="416" x2="398" y1="395" y2="390" /><line stroke="blue" x1="416" x2="434" y1="395" y2="400" /><line stroke="blue" x1="432" x2="437" y1="596" y2="577" /><line stroke="blue" x1="432" x2="427" y1="596" y2="615" /><line stroke="blue" x1="586" x2="580" y1="639" y2="659" /><line stroke="blue" x1="586" x2="593" y1="639" y2="638" /><line stroke="blue" x1="586" x2="573" y1="639" y2="637" /><line stroke="blue" x1="561" x2="544" y1="435" y2="430" /><line stroke="blue" x1="561" x2="580" y1="435" y2="441" /><line stroke="blue" x1="485" x2="467" y1="551" y2="545" /><line stroke="blue" x1="609" x2="601" y1="565" y2="583" /><line stroke="blue" x1="609" x2="615" y1="565" y2="545" /><line stroke="blue" x1="636" x2="642" y1="663" y2="645" /><line stroke="blue" x1="636" x2="630" y1="663" y2="681" /><line stroke="blue" x1="615" x2="598" y1="451" y2="447" /><line stroke="blue" x1="615" x2="633" y1="451" y2="457" /><line stroke="blue" x1="500" x2="483" y1="433" y2="429" /><line stroke="blue" x1="500" x2="517" y1="433" y2="438" /><line stroke="blue" x1="463" x2="449" y1="325" y2="311" /><line stroke="blue" x1="463" x2="480" y1="325" y2="332" /><line stroke="blue" x1="474" x2="481" y1="680" y2="659" /><line stroke="blue" x1="540" x2="558" y1="508" y2="510" /><line stroke="blue" x1="540" x2="527" y1="508" y2="522" /><line stroke="blue" x1="670" x2="664" y1="548" y2="569" /><line stroke="blue" x1="633" x2="615" y1="457" y2="451" /><line stroke="blue" x1="633" x2="651" y1="457" y2="463" /><line stroke="blue" x1="487" x2="493" y1="639" y2="620" /><line stroke="blue" x1="487" x2="481" y1="639" y2="659" /><line stroke="blue" x1="325" x2="343" y1="371" y2="376" /><line stroke="blue" x1="378" x2="395" y1="402" y2="407" /><line stroke="blue" x1="378" x2="360" y1="402" y2="398" /><line stroke="blue" x1="483" x2="466" y1="429" y2="425" /><line stroke="blue" x1="483" x2="478" y1="429" y2="445" /><line stroke="blue" x1="483" x2="500" y1="429" y2="433" /><line stroke="blue" x1="634" x2="617" y1="388" y2="382" /><line stroke="blue" x1="634" x2="651" y1="388" y2="394" /><line stroke="blue" x1="452" x2="434" y1="406" y2="400" /><line stroke="blue" x1="452" x2="471" y1="406" y2="409" /><line stroke="blue" x1="627" x2="642" y1="639" y2="645" /><line stroke="blue" x1="627" x2="613" y1="639" y2="632" /><line stroke="blue" x1="535" x2="517" y1="443" y2="438" /><line stroke="blue" x1="535" x2="551" y1="443" y2="448" /><line stroke="blue" x1="467" x2="472" y1="480" y2="462" /><line stroke="blue" x1="467" x2="462" y1="480" y2="496" /><line stroke="blue" x1="434" x2="416" y1="400" y2="395" /><line stroke="blue" x1="434" x2="452" y1="400" y2="406" /><line stroke="blue" x1="551" x2="535" y1="448" y2="443" /><line stroke="blue" x1="551" x2="569" y1="448" y2="452" /><line stroke="blue" x1="582" x2="564" y1="370" y2="363" /><line stroke="blue" x1="582" x2="600" y1="370" y2="376" /><line stroke="blue" x1="615" x2="609" y1="545" y2="565" /><line stroke="blue" x1="615" x2="611" y1="545" y2="528" /><line stroke="blue" x1="548" x2="531" y1="356" y2="349" /><line stroke="blue" x1="548" x2="564" y1="356" y2="363" /><line stroke="blue" x1="497" x2="480" y1="333" y2="332" /><line stroke="blue" x1="497" x2="512" y1="333" y2="345" /><line stroke="blue" x1="412" x2="430" y1="411" y2="415" /><line stroke="blue" x1="412" x2="395" y1="411" y2="407" /><line stroke="blue" x1="647" x2="653" y1="626" y2="608" /><line stroke="blue" x1="647" x2="642" y1="626" y2="645" /><line stroke="blue" x1="505" x2="490" y1="505" y2="503" /><line stroke="blue" x1="376" x2="359" y1="687" y2="681" /><line stroke="blue" x1="376" x2="393" y1="687" y2="691" /><line stroke="blue" x1="511" x2="518" y1="559" y2="540" /><line stroke="blue" x1="511" x2="505" y1="559" y2="579" /><line stroke="blue" x1="512" x2="497" y1="345" y2="333" /><line stroke="blue" x1="512" x2="531" y1="345" y2="349" /><line stroke="blue" x1="585" x2="569" y1="457" y2="452" /><line stroke="blue" x1="585" x2="602" y1="457" y2="462" /><line stroke="blue" x1="359" x2="342" y1="681" y2="677" /><line stroke="blue" x1="359" x2="376" y1="681" y2="687" /><line stroke="blue" x1="652" x2="636" y1="480" y2="474" /><line stroke="blue" x1="652" x2="670" y1="480" y2="485" /><circle cx="368" cy="384" fill="green" r="2" stroke="green" /><circle cx="412" cy="394" fill="green" r="2" stroke="green" /><circle cx="454" cy="406" fill="green" r="2" stroke="green" /><circle cx="498" cy="416" fill="green" r="2" stroke="green" /><circle cx="541" cy="429" fill="green" r="2" stroke="green" /><circle cx="584" cy="442" fill="green" r="2" stroke="green" /><circle cx="627" cy="454" fill="green" r="2" stroke="green" /><circle cx="409" cy="527" fill="green" r="2" stroke="green" /><circle cx="369" cy="514" fill="green" r="2" stroke="green" /><circle cx="467" cy="545" fill="green" r="2" stroke="green" /><circle cx="455" cy="517" fill="green" r="2" stroke="green" /><circle cx="437" cy="577" fill="green" r="2" stroke="green" /><circle cx="620" cy="636" fill="green" r="2" stroke="green" /><circle cx="600" cy="616" fill="green" r="2" stroke="green" /><circle cx="612" cy="556" fill="green" r="2" stroke="green" /><circle cx="593" cy="523" fill="green" r="2" stroke="green" /><circle cx="551" cy="510" fill="green" r="2" stroke="green" /><circle cx="520" cy="538" fill="green" r="2" stroke="green" /><circle cx="503" cy="585" fill="green" r="2" stroke="green" /><circle cx="489" cy="632" fill="green" r="2" stroke="green" /><circle cx="581" cy="602" fill="green" r="2" stroke="green" /><circle cx="364" cy="399" fill="green" r="2" stroke="green" /><circle cx="404" cy="409" fill="green" r="2" stroke="green" /><circle cx="444" cy="418" fill="green" r="2" stroke="green" /><circle cx="472" cy="462" fill="green" r="2" stroke="green" /><circle cx="483" cy="501" fill="green" r="2" stroke="green" /><circle cx="521" cy="439" fill="green" r="2" stroke="green" /><circle cx="558" cy="449" fill="green" r="2" stroke="green" /><circle cx="596" cy="460" fill="green" r="2" stroke="green" /><circle cx="632" cy="472" fill="green" r="2" stroke="green" /><circle cx="573" cy="637" fill="green" r="2" stroke="green" /><circle cx="624" cy="384" fill="green" r="2" stroke="green" /><circle cx="579" cy="368" fill="green" r="2" stroke="green" /><circle cx="535" cy="350" fill="green" r="2" stroke="green" /><circle cx="491" cy="332" fill="green" r="2" stroke="green" /><circle cx="656" cy="597" fill="green" r="2" stroke="green" /><circle cx="359" cy="681" fill="green" r="2" stroke="green" /><circle cx="580" cy="660" fill="green" r="2" stroke="green" /><circle cx="636" cy="663" fill="green" r="2" stroke="green" /></svg>